<?xml version="1.0" standalone="no"?>
<!DOCTYPE svg PUBLIC "-//W3C//DTD SVG 1.1//EN" "http://www.w3.org/Graphics/SVG/1.1/DTD/svg11.dtd">
<svg xmlns="http://www.w3.org/2000/svg">
<defs >
<font id="BaiJamjuree" horiz-adv-x="584" ><font-face
    font-family="Bai Jamjuree"
    units-per-em="1000"
    panose-1="0 0 8 0 0 0 0 0 0 0"
    ascent="1000"
    descent="-250"
    alphabetic="0" />
<glyph unicode=" " glyph-name="space" horiz-adv-x="288" />
<glyph unicode="!" glyph-name="exclam" horiz-adv-x="292" d="M77 700H215V205H77V700ZM109 -10T87 12T64 72Q64 109 86 131T146 154Q183 154 205 132T228 72Q228 35 206 13T146 -10Q109 -10 87 12Z" />
<glyph unicode="&quot;" glyph-name="quotedbl" horiz-adv-x="406" d="M38 700H174V457H38V700ZM232 700H368V457H232V700Z" />
<glyph unicode="#" glyph-name="numbersign" horiz-adv-x="709" d="M150 157H38V267H150V430H38V540H150V700H278V540H431V700H559V540H671V430H559V267H671V157H559V0H431V157H278V0H150V157ZM431 265V432H278V265H431Z" />
<glyph unicode="$" glyph-name="dollar" horiz-adv-x="656" d="M526 383T574 343T622 238V172Q622 94 562 45T402 -8V-102H266V-8Q159 -7 99 55T38 225H174Q174 173 200 144T274 114H385Q429 114 456 132T484 182V216Q484 265 412 277L228 308Q138 323 92 365T45
474V530Q45 581 72 621T150 684T266 708V802H402V708Q496 703 552 645T609 493H473Q473 535 450 560T389 586H276Q234 586 209 568T183 520V493Q183 443 252 431L435 399Q526 383 574 343Z" />
<glyph unicode="%" glyph-name="percent" horiz-adv-x="1051" d="M652 722H794L398 -25H256L652 722ZM130 260T84 305T38 425V543Q38 617 84 662T206 708H262Q338 708 384 663T430 543V425Q430 351 384 306T262 260H206Q130 260 84 305ZM259 369Q280 369 292 386T305
433V535Q305 564 293 581T259 599H209Q188 599 176 582T163 535V433Q163 404 175 387T209 369H259ZM713 -8T667 37T621 157V275Q621 349 667 394T789 440H845Q921 440 967 395T1013 275V157Q1013 83 967 38T845 -8H789Q713 -8 667 37ZM842 101Q863 101 875 118T888
165V267Q888 296 876 313T842 331H792Q771 331 759 314T746 267V165Q746 136 758 119T792 101H842Z" />
<glyph unicode="&amp;" glyph-name="ampersand" horiz-adv-x="696" d="M544 0L487 62Q448 28 401 10T301 -8H261Q156 -8 97 39T38 169V205Q38 252 57 284T103 337T188 392L178 404Q126 466 126 525V547Q126 620 178 664T315 708H353Q433 708 481 665T530 550V530Q530
499 516 475T472 426T384 366L366 355L474 237Q495 286 499 339H615Q609 234 558 146L692 0H544ZM252 525Q252 494 285 455L304 432L320 443Q374 481 389 495T404 530V550Q404 573 389 586T349 600H314Q287 600 270 585T252 545V525ZM364 106T410 146L262 308Q208
277 190 258T172 207V173Q172 143 196 125T259 106H303Q364 106 410 146Z" />
<glyph unicode="&apos;" glyph-name="quotesingle" horiz-adv-x="212" d="M38 700H174V457H38V700Z" />
<glyph unicode="(" glyph-name="parenleft" horiz-adv-x="342" d="M108 -98T73 9T38 239V259Q38 386 73 493T182 700H324Q247 597 211 490T174 259V239Q174 126 210 19T324 -202H182Q108 -98 73 9Z" />
<glyph unicode=")" glyph-name="parenright" horiz-adv-x="342" d="M95 -89T131 18T168 239V259Q168 382 132 489T18 700H160Q234 600 269 493T304 259V239Q304 117 269 10T160 -202H18Q95 -89 131 18Z" />
<glyph unicode="*" glyph-name="asterisk" horiz-adv-x="452" d="M174 496L83 435L38 519L142 573L38 626L83 710L174 650V750H278V650L369 710L414 626L310 573L414 519L369 435L278 496V395H174V496Z" />
<glyph unicode="+" glyph-name="plus" horiz-adv-x="576" d="M220 265H38V383H220V565H356V383H538V265H356V83H220V265Z" />
<glyph unicode="," glyph-name="comma" horiz-adv-x="252" d="M-6 -88L24 -61Q76 -14 76 53V119H212V53Q212 -14 188 -68T116 -159L82 -186L-6 -88Z" />
<glyph unicode="-" glyph-name="hyphen" horiz-adv-x="405" d="M38 316H367V198H38V316Z" />
<glyph unicode="." glyph-name="period" horiz-adv-x="240" d="M83 -10T61 12T38 72Q38 109 60 131T120 154Q157 154 179 132T202 72Q202 35 180 13T120 -10Q83 -10 61 12Z" />
<glyph unicode="/" glyph-name="slash" horiz-adv-x="550" d="M394 722H532L156 -25H18L394 722Z" />
<glyph unicode="0" glyph-name="zero" horiz-adv-x="674" d="M216 -8T162 22T78 109T48 238V462Q48 535 77 591T161 677T286 708H392Q461 708 514 678T596 591T626 462V238Q626 165 597 109T515 23T392 -8H286Q216 -8 162 22ZM390 114Q434 114 460 147T487 236V464Q487
519 461 552T390 586H288Q242 586 214 553T186 464V236Q186 181 214 148T288 114H390Z" />
<glyph unicode="1" glyph-name="one" horiz-adv-x="385" d="M179 550L18 469V597L212 700H317V0H179V550Z" />
<glyph unicode="2" glyph-name="two" horiz-adv-x="583" d="M33 100Q33 160 55 204T130 280L378 428Q396 438 406 456T417 492V524Q417 552 397 569T343 586H251Q212 586 190 558T168 477H30Q30 586 88 647T249 708H343Q406 708 454 685T528 620T555 524V492Q555
438 533 400T462 333L221 193Q197 179 185 162T172 120H559V0H33V100Z" />
<glyph unicode="3" glyph-name="three" horiz-adv-x="617" d="M540 337T562 302T585 229V189Q585 131 556 86T475 17T353 -8H256Q149 -8 89 53T28 223H164Q164 171 188 143T256 114H353Q395 114 421 134T447 189V229Q447 260 420 279T350 298H222V418H350Q388
418 411 436T434 485V525Q434 553 412 569T355 586H258Q217 586 195 558T172 477H33Q33 586 92 647T258 708H355Q419 708 468 685T545 621T572 525V485Q572 448 553 416T499 361Q540 337 562 302Z" />
<glyph unicode="4" glyph-name="four" horiz-adv-x="621" d="M381 134H96Q54 134 31 152T8 204V232L380 700H519V256H607V134H519V0H381V134ZM385 250V527H384L165 250H385Z" />
<glyph unicode="5" glyph-name="five" horiz-adv-x="625" d="M154 -8T96 51T38 215H174Q174 168 196 141T258 114H354Q398 114 424 138T451 202V256Q451 291 424 313T351 335H62V700H563V578H200V457H351Q422 457 476 432T559 362T589 256V202Q589 140 560 92T477
18T354 -8H258Q154 -8 96 51Z" />
<glyph unicode="6" glyph-name="six" horiz-adv-x="634" d="M220 -8T165 21T79 105T48 229V475Q48 544 78 597T163 679T290 708H376Q439 708 487 683T563 611T590 503H454Q454 540 433 563T376 586H290Q243 586 215 556T186 475V397Q212 422 248 437T319 452H385Q452
452 503 427T582 356T610 250V209Q610 144 580 95T494 19T366 -8H293Q220 -8 165 21ZM366 108Q414 108 443 135T472 209V250Q472 289 448 312T383 336H317Q269 336 234 309T188 236V202Q188 160 217 134T295 108H366Z" />
<glyph unicode="7" glyph-name="seven" horiz-adv-x="520" d="M139 48Q139 95 150 145T183 238L357 578H2V700H518V621L319 216Q299 175 288 130T277 48V0H139V48Z" />
<glyph unicode="8" glyph-name="eight" horiz-adv-x="648" d="M199 -8T144 15T59 81T28 179V226Q28 264 57 301T133 360V361Q96 383 74 417T51 485V529Q51 582 79 622T160 685T281 708H367Q435 708 487 686T568 623T597 529V485Q597 452 575 418T515 361V360Q562
338 591 301T620 226V179Q620 124 590 82T504 16T377 -8H271Q199 -8 144 15ZM367 416Q408 416 433 435T459 485V527Q459 555 434 572T367 589H281Q240 589 215 572T189 527V485Q189 454 214 435T281 416H367ZM377 111Q424 111 453 131T482 186V223Q482 258 451
279T367 300H281Q229 300 198 279T166 223V186Q166 152 195 132T271 111H377Z" />
<glyph unicode="9" glyph-name="nine" horiz-adv-x="638" d="M205 -8T155 17T78 87T50 192H187Q187 157 210 136T271 114H357Q400 114 426 140T452 211V292Q427 270 392 256T325 242H258Q190 242 139 268T59 343T30 454V494Q30 557 61 605T149 681T280 708H350Q421
708 475 681T560 605T590 492V211Q590 146 561 97T479 20T357 -8H271Q205 -8 155 17ZM327 358Q372 358 406 384T452 452V500Q452 541 424 566T350 592H280Q230 592 199 565T168 494V454Q168 411 192 385T257 358H327Z" />
<glyph unicode=":" glyph-name="colon" horiz-adv-x="240" d="M83 335T61 357T38 417Q38 454 60 476T120 499Q157 499 179 477T202 417Q202 380 180 358T120 335Q83 335 61 357ZM83 8T61 30T38 90Q38 127 60 149T120 172Q157 172 179 150T202 90Q202 53 180 31T120
8Q83 8 61 30Z" />
<glyph unicode=";" glyph-name="semicolon" horiz-adv-x="259" d="M102 335T80 357T57 417Q57 454 79 476T139 499Q176 499 198 477T221 417Q221 380 199 358T139 335Q102 335 80 357ZM-6 -88L24 -61Q76 -14 76 53V119H212V53Q212 -14 188 -68T116 -159L82 -186L-6 -88Z" />
<glyph unicode="&lt;" glyph-name="less" horiz-adv-x="568" d="M18 273V359L530 622V488L180 316L530 144V10L18 273Z" />
<glyph unicode="=" glyph-name="equal" horiz-adv-x="533" d="M38 459H495V343H38V459ZM38 275H495V159H38V275Z" />
<glyph unicode="&gt;" glyph-name="greater" horiz-adv-x="568" d="M38 144L388 316L38 488V622L550 359V273L38 10V144Z" />
<glyph unicode="?" glyph-name="question" horiz-adv-x="591" d="M221 226Q221 270 237 300T277 350T336 391Q377 416 396 435T415 484V520Q415 551 393 569T334 588H248Q208 588 184 562T160 491H22Q22 555 50 604T129 681T248 708H334Q399 708 448 685T525 619T553
520V484Q553 439 538 409T501 362T443 323Q401 299 380 278T359 218V204H221V226ZM253 -10T231 12T208 72Q208 109 230 131T290 154Q327 154 349 132T372 72Q372 35 350 13T290 -10Q253 -10 231 12Z" />
<glyph unicode="@" glyph-name="at" horiz-adv-x="900" d="M195 -40T117 31T38 228V428Q38 568 125 647T369 726H567Q706 726 784 660T862 476V327Q862 242 822 195T708 147H676Q646 147 621 161T580 199H579Q558 170 527 154T462 137H410Q331 137 287 181T243
303V370Q243 452 288 498T413 544H459Q483 544 504 535T539 508V538H649V289Q649 271 657 261T682 250H702Q719 250 728 266T738 313V476Q738 542 693 579T567 616H369Q273 616 220 567T166 428V228Q166 154 211 112T335 70H511Q565 70 611 81T687 114L746 25Q711
-6 648 -23T508 -40H335Q195 -40 117 31ZM464 241Q491 241 508 261T529 319V382Q526 409 511 424T472 440H425Q396 440 380 421T363 366V307Q363 276 377 259T417 241H464Z" />
<glyph unicode="A" glyph-name="A" horiz-adv-x="681" d="M472 163H210L148 0H4L278 700H340Q405 700 428 640L677 0H533L472 163ZM247 279H435L342 531H341L247 279Z" />
<glyph unicode="B" glyph-name="B" horiz-adv-x="690" d="M116 0T89 26T62 94V700H410Q505 700 562 655T620 534V484Q620 451 604 421T557 372V371Q605 354 634 316T664 231V179Q664 97 605 49T444 0H159Q116 0 89 26ZM410 410Q442 410 462 430T482 485V519Q482
547 461 563T405 580H200V410H410ZM434 120Q478 120 502 137T526 187V231Q526 260 505 278T449 296H200V120H434Z" />
<glyph unicode="C" glyph-name="C" horiz-adv-x="688" d="M223 -8T165 25T74 118T42 258V442Q42 521 74 581T166 675T304 708H410Q485 708 542 676T630 587T662 453H526Q526 513 494 549T410 586H304Q248 586 214 545T180 436V264Q180 197 213 156T300 114H408Q461
114 494 155T528 263H664Q664 182 632 121T542 26T408 -8H300Q223 -8 165 25Z" />
<glyph unicode="D" glyph-name="D" horiz-adv-x="702" d="M116 0T89 26T62 94V700H396Q476 700 536 670T630 585T664 458V262Q664 133 597 67T400 0H159Q116 0 89 26ZM396 122Q460 122 493 159T526 268V452Q526 509 489 543T392 578H200V122H396Z" />
<glyph unicode="E" glyph-name="E" horiz-adv-x="628" d="M116 0T89 26T62 94V700H596V580H200V418H566V298H200V120H596V0H159Q116 0 89 26Z" />
<glyph unicode="F" glyph-name="F" horiz-adv-x="604" d="M62 700H586V580H200V392H549V272H200V0H62V700Z" />
<glyph unicode="G" glyph-name="G" horiz-adv-x="712" d="M225 -8T166 25T75 118T42 258V442Q42 521 74 581T166 675T304 708H416Q491 708 548 678T636 593T668 466H532Q532 520 500 553T416 586H304Q248 586 214 545T180 436V264Q180 197 213 156T302 114H420Q471
114 504 151T538 243V265H344V385H674V243Q674 170 642 113T552 24T420 -8H302Q225 -8 166 25Z" />
<glyph unicode="H" glyph-name="H" horiz-adv-x="726" d="M62 700H200V411H526V700H664V0H526V291H200V0H62V700Z" />
<glyph unicode="I" glyph-name="I" horiz-adv-x="282" d="M72 700H210V0H72V700Z" />
<glyph unicode="J" glyph-name="J" horiz-adv-x="605" d="M176 -8T125 23T45 112T16 245H152Q152 186 177 150T244 114H321Q362 114 387 151T413 250V700H551V244Q551 169 523 112T444 24T327 -8H244Q176 -8 125 23Z" />
<glyph unicode="K" glyph-name="K" horiz-adv-x="674" d="M498 0L267 294L200 222V0H62V700H200V398L478 700H648L360 393L666 0H498Z" />
<glyph unicode="L" glyph-name="L" horiz-adv-x="588" d="M115 0T89 25T62 93V700H200V120H580V0H159Q115 0 89 25Z" />
<glyph unicode="M" glyph-name="M" horiz-adv-x="823" d="M62 700H185L414 284L638 700H761V0H626V443L479 177Q464 150 449 139T413 127H375L197 443V0H62V700Z" />
<glyph unicode="N" glyph-name="N" horiz-adv-x="718" d="M62 700H185L521 224V700H656V0H533L197 476V0H62V700Z" />
<glyph unicode="O" glyph-name="O" horiz-adv-x="724" d="M230 -8T170 25T76 119T42 260V440Q42 520 75 580T169 674T309 708H415Q494 708 554 675T648 581T682 440V260Q682 180 649 120T555 26T415 -8H309Q230 -8 170 25ZM415 114Q473 114 508 156T544 266V434Q544
502 509 544T415 586H309Q251 586 216 544T180 434V266Q180 198 215 156T309 114H415Z" />
<glyph unicode="P" glyph-name="P" horiz-adv-x="652" d="M62 700H431Q492 700 539 677T612 610T638 510V417Q638 359 611 315T536 246T423 221H200V0H62V700ZM421 341Q456 341 478 363T500 423V504Q500 539 481 559T429 580H200V341H421Z" />
<glyph unicode="Q" glyph-name="Q" horiz-adv-x="728" d="M627 -49L546 31Q484 -8 415 -8H309Q230 -8 170 25T76 119T42 260V440Q42 520 75 580T169 674T309 708H415Q494 708 554 675T648 581T682 440V268Q682 190 636 120L714 43L627 -49ZM434 114T453 122L362
212L449 304L536 218Q544 244 544 268V434Q544 502 509 544T415 586H309Q251 586 216 544T180 434V266Q180 198 215 156T309 114H415Q434 114 453 122Z" />
<glyph unicode="R" glyph-name="R" horiz-adv-x="678" d="M62 700H434Q525 700 580 651T636 522V452Q636 400 607 362T521 303V301Q553 280 569 253T602 178L658 0H515L462 166Q449 209 426 230T369 251H200V0H62V700ZM408 370Q450 370 474 392T498 451V516Q498
545 480 562T432 580H200V370H408Z" />
<glyph unicode="S" glyph-name="S" horiz-adv-x="656" d="M162 -8T100 53T38 225H174Q174 173 200 144T274 114H385Q429 114 456 132T484 182V216Q484 265 412 277L228 308Q138 323 92 365T45 474V530Q45 583 73 623T154 686T276 708H389Q454 708 504 681T581
606T609 493H473Q473 535 450 560T389 586H276Q234 586 209 568T183 520V493Q183 443 252 431L435 399Q526 383 574 343T622 238V172Q622 119 593 78T510 15T387 -8H272Q162 -8 100 53Z" />
<glyph unicode="T" glyph-name="T" horiz-adv-x="606" d="M234 580H12V700H594V580H372V0H234V580Z" />
<glyph unicode="U" glyph-name="U" horiz-adv-x="720" d="M232 -8T176 23T89 112T58 244V700H196V248Q196 188 226 151T306 114H412Q462 114 493 151T524 248V700H662V244Q662 169 631 112T543 24T412 -8H306Q232 -8 176 23Z" />
<glyph unicode="V" glyph-name="V" horiz-adv-x="666" d="M270 0T245 64L4 700H148L332 175H334L519 700H662L393 0H328Q270 0 245 64Z" />
<glyph unicode="W" glyph-name="W" horiz-adv-x="877" d="M195 0T172 17T140 78L16 700H156L242 203H244L389 663H439Q464 663 482 650T511 603L633 204H635L721 700H861L736 78Q728 38 707 19T648 0H590L441 480H439L287 0H229Q195 0 172 17Z" />
<glyph unicode="X" glyph-name="X" horiz-adv-x="641" d="M242 357L8 700H165L321 470L477 700H633L399 357L643 0H486L321 244L155 0H-2L242 357Z" />
<glyph unicode="Y" glyph-name="Y" horiz-adv-x="652" d="M257 272L-2 700H148L326 399L504 700H654L395 272V0H257V272Z" />
<glyph unicode="Z" glyph-name="Z" horiz-adv-x="606" d="M22 68L393 582H40V700H584V632L211 118H574V0H22V68Z" />
<glyph unicode="[" glyph-name="bracketleft" horiz-adv-x="347" d="M170 -207T116 -157T62 -16V544Q62 634 116 684T267 735H323V617H267Q235 617 217 598T198 545V-17Q198 -51 216 -69T267 -88H323V-207H267Q170 -207 116 -157Z" />
<glyph unicode="\" glyph-name="backslash" horiz-adv-x="550" d="M18 722H156L532 -25H394L18 722Z" />
<glyph unicode="]" glyph-name="bracketright" horiz-adv-x="347" d="M24 -88H80Q112 -88 130 -70T149 -17V545Q149 579 131 598T80 617H24V735H80Q177 735 231 685T285 544V-16Q285 -106 231 -156T80 -207H24V-88Z" />
<glyph unicode="^" glyph-name="asciicircum" horiz-adv-x="609" d="M247 700H363L571 337H429L305 560L180 337H38L247 700Z" />
<glyph unicode="_" glyph-name="underscore" horiz-adv-x="594" d="M0 -10H594V-128H0V-10Z" />
<glyph unicode="`" glyph-name="grave" horiz-adv-x="312" d="M32 748H182L280 568H150L32 748Z" />
<glyph unicode="a" glyph-name="a" d="M138 -8T90 31T42 134V171Q42 234 92 272T224 311H285Q311 311 341 304T396 285V337Q396 362 380 377T336 393H250Q222 393 205 380T188 345H56Q56 418 109 462T250 507H336Q424 507 478 461T532 337V0H406V60Q382 29 347
11T278 -8H216Q138 -8 90 31ZM288 96Q325 96 354 115T396 166V183Q380 195 352 202T291 209H228Q204 209 189 197T174 165V139Q174 120 190 108T234 96H288Z" />
<glyph unicode="b" glyph-name="b" horiz-adv-x="604" d="M268 -8T236 12T184 64V0H58V700H194V460Q214 481 243 494T300 507H370Q428 507 472 483T541 413T566 309V195Q566 135 541 89T471 18T368 -8H299Q268 -8 236 12ZM352 111Q387 111 408 137T430 205V299Q430
339 409 363T354 388H292Q252 388 225 360T194 286V200Q201 160 226 136T287 111H352Z" />
<glyph unicode="c" glyph-name="c" horiz-adv-x="560" d="M188 -8T140 17T65 87T38 191V308Q38 367 64 412T139 482T250 507H329Q389 507 435 483T506 416T531 315H396Q396 349 378 369T329 390H252Q217 390 196 365T174 298V201Q174 160 196 135T253 109H330Q362
109 381 132T401 193H536Q536 102 480 47T330 -8H251Q188 -8 140 17Z" />
<glyph unicode="d" glyph-name="d" horiz-adv-x="604" d="M147 -8T93 46T38 188V302Q38 363 64 409T137 481T246 507H301Q330 507 360 495T410 461V700H546V0H420V66Q400 33 366 13T295 -8H236Q147 -8 93 46ZM310 109Q351 109 378 138T410 217V304Q403 343 380
366T324 390H263Q223 390 199 363T174 292V198Q174 158 196 134T253 109H310Z" />
<glyph unicode="e" glyph-name="e" horiz-adv-x="578" d="M189 -8T141 15T65 81T38 179V308Q38 367 65 412T140 482T252 507H332Q428 507 486 453T544 309V203H174V179Q174 146 195 126T252 106H330Q365 106 386 121T408 162H542Q542 112 515 73T440 13T328 -8H252Q189
-8 141 15ZM410 301V309Q410 348 389 371T333 395H252Q216 395 194 370T172 304V301H410Z" />
<glyph unicode="f" glyph-name="f" horiz-adv-x="379" d="M104 383H18V499H104V532Q104 613 155 658T299 704H371V588H301Q269 588 255 574T240 530V499H360V383H240V0H104V383Z" />
<glyph unicode="g" glyph-name="g" horiz-adv-x="606" d="M172 -203T119 -158T60 -38H194Q196 -60 212 -73T252 -87H342Q373 -87 392 -62T412 5V52Q392 30 364 17T309 4H240Q149 4 94 58T38 200V302Q38 363 64 409T137 481T245 507H303Q337 507 369 491T422 449V499H548V5Q548
-57 523 -104T450 -177T342 -203H252Q172 -203 119 -158ZM318 119Q356 119 382 150T412 233V302Q408 342 385 366T327 390H257Q220 390 197 363T174 292V210Q174 169 195 144T249 119H318Z" />
<glyph unicode="h" glyph-name="h" horiz-adv-x="602" d="M58 700H194V449Q216 475 248 491T311 507H373Q453 507 501 457T550 325V0H414V320Q414 351 398 370T355 389H293Q258 389 231 364T194 297V0H58V700Z" />
<glyph unicode="i" glyph-name="i" horiz-adv-x="288" d="M105 546T82 568T58 628Q58 665 81 687T144 710Q183 710 206 688T230 628Q230 591 207 569T144 546Q105 546 82 568ZM76 499H212V0H76V499Z" />
<glyph unicode="j" glyph-name="j" horiz-adv-x="300" d="M117 546T94 568T70 628Q70 665 93 687T156 710Q195 710 218 688T242 628Q242 591 219 569T156 546Q117 546 94 568ZM-44 -83H18Q54 -83 71 -60T88 13V499H224V18Q224 -94 174 -146T18 -199H-44V-83Z" />
<glyph unicode="k" glyph-name="k" horiz-adv-x="555" d="M403 0L247 200L194 147V0H58V700H194V300L391 499H549L335 287L557 0H403Z" />
<glyph unicode="l" glyph-name="l" horiz-adv-x="296" d="M141 0T100 37T58 154V700H194V162Q194 138 205 127T240 116H294V0H230Q141 0 100 37Z" />
<glyph unicode="m" glyph-name="m" horiz-adv-x="848" d="M704 507T750 458T796 328V0H660V328Q660 356 647 372T613 389H570Q542 389 521 369T495 314V0H359V327Q359 355 346 372T312 389H273Q244 389 222 363T194 295V0H58V499H184V441Q202 471 230 489T288
507H344Q380 507 409 488T456 435Q478 469 508 488T573 507H628Q704 507 750 458Z" />
<glyph unicode="n" glyph-name="n" horiz-adv-x="600" d="M58 499H184V439Q206 470 241 488T311 507H371Q451 507 499 457T548 325V0H412V320Q412 351 396 370T353 389H293Q258 389 231 364T194 297V0H58V499Z" />
<glyph unicode="o" glyph-name="o" horiz-adv-x="594" d="M188 -8T140 16T65 86T38 190V307Q38 366 65 411T140 482T252 507H342Q405 507 453 482T529 412T556 307V190Q556 131 529 86T454 17T341 -8H251Q188 -8 140 16ZM339 109Q376 109 398 134T420 201V298Q420
339 398 364T340 390H254Q218 390 196 365T174 298V201Q174 160 196 135T253 109H339Z" />
<glyph unicode="p" glyph-name="p" horiz-adv-x="604" d="M58 499H184V445Q205 473 237 490T301 507H364Q424 507 470 483T541 414T566 313V201Q566 139 541 92T471 18T367 -8H302Q274 -8 245 5T194 40V-200H58V499ZM349 109Q386 109 408 137T430 211V303Q430
342 408 366T348 390H287Q258 390 232 367T194 306V207Q199 163 224 136T287 109H349Z" />
<glyph unicode="q" glyph-name="q" horiz-adv-x="604" d="M410 42Q391 20 364 6T310 -8H239Q148 -8 93 46T38 190V302Q38 363 63 409T136 481T244 507H311Q341 507 370 491T420 449V499H546V-200H410V42ZM316 109Q354 109 380 140T410 223V302Q406 342 383 366T325
390H256Q219 390 197 363T174 292V200Q174 159 194 134T248 109H316Z" />
<glyph unicode="r" glyph-name="r" horiz-adv-x="383" d="M58 499H184V435Q203 464 238 482T313 501H381V383H313Q260 383 227 351T194 269V0H58V499Z" />
<glyph unicode="s" glyph-name="s" horiz-adv-x="549" d="M144 -8T89 40T34 166H168Q168 139 186 123T235 106H325Q385 106 385 139V156Q385 166 375 174T348 186L175 216Q114 226 79 259T43 338V371Q43 435 95 471T242 507H320Q404 507 455 463T507 345H373Q373
367 359 380T320 393H244Q179 393 179 363V347Q179 336 187 329T212 318L394 285Q451 275 486 243T521 169V133Q521 68 468 30T325 -8H235Q144 -8 89 40Z" />
<glyph unicode="t" glyph-name="t" horiz-adv-x="410" d="M188 0T147 40T106 164V383H18V499H110V650H242V499H372V383H242V170Q242 142 252 129T286 116H372V0H276Q188 0 147 40Z" />
<glyph unicode="u" glyph-name="u" horiz-adv-x="598" d="M148 -8T100 45T52 186V499H188V184Q188 151 204 131T248 110H306Q339 110 366 137T404 210V499H540V0H414V64Q391 32 358 12T293 -8H227Q148 -8 100 45Z" />
<glyph unicode="v" glyph-name="v" horiz-adv-x="521" d="M223 0T204 15T170 65L-2 499H141L259 156H261L380 499H523L322 0H252Q223 0 204 15Z" />
<glyph unicode="w" glyph-name="w" horiz-adv-x="749" d="M134 0T115 78L14 499H155L216 182H218L327 487H380Q403 487 417 477T439 446L532 182H534L594 499H735L636 78Q618 0 550 0H488L377 316L262 0H201Q134 0 115 78Z" />
<glyph unicode="x" glyph-name="x" horiz-adv-x="532" d="M187 253L4 499H156L266 351L376 499H528L345 253L534 0H382L266 156L150 0H-2L187 253Z" />
<glyph unicode="y" glyph-name="y" horiz-adv-x="598" d="M171 -203T119 -158T60 -38H194Q196 -60 212 -73T252 -87H334Q365 -87 384 -62T404 5V70Q381 39 352 22T293 4H227Q148 4 100 56T52 196V499H188V194Q188 161 204 141T248 120H306Q339 120 366 147T404
220V499H540V5Q540 -57 515 -104T442 -177T334 -203H252Q171 -203 119 -158Z" />
<glyph unicode="z" glyph-name="z" horiz-adv-x="500" d="M18 68L288 384H30V499H482V431L212 115H477V0H18V68Z" />
<glyph unicode="{" glyph-name="braceleft" horiz-adv-x="398" d="M222 -231T172 -182T121 -44V121Q121 158 99 179T38 200V304Q77 304 99 325T121 383V548Q121 636 171 685T312 735H380V617H319Q290 617 274 598T257 544V383Q257 344 240 310T189 252Q222 228
239 194T257 121V-40Q257 -74 273 -93T319 -113H380V-231H312Q222 -231 172 -182Z" />
<glyph unicode="|" glyph-name="bar" horiz-adv-x="272" d="M68 847H204V-147H68V847Z" />
<glyph unicode="}" glyph-name="braceright" horiz-adv-x="398" d="M18 -113H79Q108 -113 124 -94T141 -40V121Q141 160 158 194T209 252Q176 276 159 310T141 383V544Q141 578 125 597T79 617H18V735H86Q176 735 226 686T277 548V383Q277 346 299 325T360 304V200Q321
200 299 179T277 121V-44Q277 -132 227 -181T86 -231H18V-113Z" />
<glyph unicode="~" glyph-name="asciitilde" horiz-adv-x="627" d="M361 211T330 230T264 283Q246 300 237 307T219 314H207Q186 314 174 291T160 225H38Q39 322 84 377T207 432H219Q263 432 291 415T348 366Q368 346 379 338T406 329H418Q440 329 452 353T467
420H589Q587 322 542 267T418 211H406Q361 211 330 230Z" />
<glyph unicode="&#xa0;" glyph-name="uni00A0" horiz-adv-x="288" />
<glyph unicode="&#xa1;" glyph-name="exclamdown" horiz-adv-x="292" d="M183 507T205 485T228 425Q228 388 206 366T146 343Q109 343 87 365T64 425Q64 462 86 484T146 507Q183 507 205 485ZM215 292V-203H77V292H215Z" />
<glyph unicode="&#xa2;" glyph-name="cent" horiz-adv-x="560" d="M536 109T488 55T357 -7V-110H221V-6Q138 2 88 55T38 191V308Q38 390 87 443T221 506V607H357V506Q436 498 483 446T531 315H396Q396 349 378 369T329 390H252Q217 390 196 365T174 298V201Q174
160 196 135T253 109H330Q362 109 381 132T401 193H536Q536 109 488 55Z" />
<glyph unicode="&#xa3;" glyph-name="sterling" horiz-adv-x="679" d="M266 120H645V0H38V120H128V261H38V379H128V494Q128 557 155 605T233 681T348 708H434Q498 708 546 681T622 606T649 494H513Q513 536 491 562T434 588H348Q311 588 289 562T266 494V379H482V261H266V120Z"
/>
<glyph unicode="&#xa4;" glyph-name="currency" horiz-adv-x="678" d="M38 122L103 186Q82 217 71 257T59 339Q59 381 70 421T103 493L39 557L118 640L188 571Q219 588 258 597T337 607Q377 607 417 598T489 570L560 640L639 556L574 492Q594 461 605 421T616
339Q616 299 605 259T574 187L640 122L559 42L490 109Q457 92 417 82T337 72Q297 72 257 82T187 109L119 42L38 122ZM405 193T442 231T480 339Q480 409 442 448T337 487Q270 487 233 448T195 339Q195 270 232 232T337 193Q405 193 442 231Z" />
<glyph unicode="&#xa5;" glyph-name="yen" horiz-adv-x="652" d="M446 357H565V251H395V197H565V91H395V0H257V91H87V197H257V251H87V357H206L-2 700H148L326 399L504 700H654L446 357Z" />
<glyph unicode="&#xa6;" glyph-name="brokenbar" horiz-adv-x="272" d="M68 847H204V435H68V847ZM68 265H204V-147H68V265Z" />
<glyph unicode="&#xa7;" glyph-name="section" horiz-adv-x="586" d="M548 284T527 258T472 218Q497 208 512 188T528 142V101Q528 37 477 2T331 -33H249Q165 -33 115 11T64 129H198Q198 107 211 94T249 81H337Q367 81 379 90T392 115V131Q392 142 384 150T359
162L165 213Q105 229 72 259T38 329V371Q38 406 59 430T114 467Q92 478 78 499T63 543V584Q63 648 115 683T261 718H342Q426 718 476 674T527 556H393Q393 578 380 591T342 604H253Q223 604 211 596T199 571V555Q199 544 207 535T232 522L421 471Q481 455 514 425T548
355V319Q548 284 527 258ZM412 336Q412 346 402 356T375 372L218 415Q197 411 186 401T174 375V348Q174 337 184 327T211 312L363 272Q387 274 399 284T412 309V336Z" />
<glyph unicode="&#xa8;" glyph-name="dieresis" horiz-adv-x="456" d="M72 570T52 589T32 641Q32 673 52 692T104 712Q135 712 155 693T175 641Q175 610 155 590T104 570Q72 570 52 589ZM321 570T301 590T281 641Q281 673 301 692T352 712Q384 712 404 693T424
641Q424 609 404 590T352 570Q321 570 301 590Z" />
<glyph unicode="&#xa9;" glyph-name="copyright" horiz-adv-x="720" d="M264 19T191 60T78 176T38 349Q38 447 78 522T191 638T360 679Q456 679 529 638T642 522T682 349Q682 251 642 176T529 60T360 19Q264 19 191 60ZM431 100T485 131T568 218T598 349Q598 423
569 479T485 567T360 598Q289 598 235 567T152 480T122 349Q122 275 151 219T235 131T360 100Q431 100 485 131ZM275 171T239 208T202 306V398Q202 459 238 496T335 533H389Q447 533 482 497T517 400H417Q417 421 408 434T383 447H342Q325 447 315 433T304 395V309Q304
286 314 272T340 257H382Q398 257 408 272T418 311H518Q518 248 483 210T388 171H334Q275 171 239 208Z" />
<glyph unicode="&#xaa;" glyph-name="ordfeminine" horiz-adv-x="441" d="M115 343T82 370T48 441V469Q48 513 83 540T176 567H218Q255 567 281 550V586Q281 600 271 608T245 616H203Q188 616 179 610T170 592H58Q58 643 95 674T194 706H255Q317 706 355 673T393
586V349H289V385Q273 366 252 355T212 343H170Q115 343 82 370ZM221 425Q241 425 257 436T281 466V477Q272 482 256 485T223 489H196Q180 489 170 483T160 466V448Q160 438 170 432T197 425H221Z" />
<glyph unicode="&#xab;" glyph-name="guillemotleft" horiz-adv-x="680" d="M18 268L356 534V392L192 268L356 142V2L18 268ZM304 268L642 534V392L478 268L642 142V2L304 268Z" />
<glyph unicode="&#xac;" glyph-name="logicalnot" horiz-adv-x="667" d="M493 335H38V453H629V131H493V335Z" />
<glyph unicode="&#xad;" glyph-name="uni00AD" horiz-adv-x="405" d="M38 316H367V198H38V316Z" />
<glyph unicode="&#xae;" glyph-name="registered" horiz-adv-x="720" d="M264 19T191 60T78 176T38 349Q38 447 78 522T191 638T360 679Q456 679 529 638T642 522T682 349Q682 251 642 176T529 60T360 19Q264 19 191 60ZM431 100T485 131T568 218T598 349Q598
423 569 479T485 567T360 598Q289 598 235 567T152 480T122 349Q122 275 151 219T235 131T360 100Q431 100 485 131ZM219 527H407Q453 527 481 502T509 437V400Q509 345 450 326V325Q467 314 476 301T493 263L521 177H418L393 257Q387 277 376 283T346 289H317V177H219V527ZM373
369Q411 369 411 400V418Q411 445 379 445H317V369H373Z" />
<glyph unicode="&#xaf;" glyph-name="overscore" horiz-adv-x="384" d="M32 689H352V583H32V689Z" />
<glyph unicode="&#xb0;" glyph-name="degree" horiz-adv-x="372" d="M119 416T79 456T38 562Q38 628 78 668T186 708Q253 708 293 668T334 562Q334 496 294 456T186 416Q119 416 79 456ZM215 499T232 516T249 562Q249 591 232 608T186 625Q158 625 141 608T123
562Q123 534 140 517T186 499Q215 499 232 516Z" />
<glyph unicode="&#xb1;" glyph-name="plusminus" horiz-adv-x="576" d="M220 330H38V448H220V616H356V448H538V330H356V168H220V330ZM38 118H538V0H38V118Z" />
<glyph unicode="&#xb2;" glyph-name="uni00B2" horiz-adv-x="369" d="M32 358Q32 395 47 423T89 467L208 538Q233 552 233 573V591Q233 602 225 608T203 615H174Q156 615 146 603T136 570H30Q30 631 65 668T159 705H214Q270 705 304 675T339 596V575Q339 513 284
481L168 414Q152 405 145 396T138 376H337V289H32V358Z" />
<glyph unicode="&#xb3;" glyph-name="uni00B3" horiz-adv-x="388" d="M327 489T341 470T356 425V409Q356 353 319 319T220 284H162Q102 284 65 320T28 416H133Q133 395 144 384T175 372H209Q228 372 239 382T250 410V424Q250 439 238 448T205 458H142V540H212Q225
540 233 549T242 574V588Q242 601 233 609T210 617H172Q155 617 146 606T136 573H31Q31 633 67 669T163 705H221Q278 705 313 674T348 590V574Q348 550 336 531T298 500Q327 489 341 470Z" />
<glyph unicode="&#xb4;" glyph-name="acute" horiz-adv-x="312" d="M130 748H280L162 568H32L130 748Z" />
<glyph unicode="&#xb6;" glyph-name="paragraph" horiz-adv-x="606" d="M538 700V0H414V289H358V0H234V289H233Q179 289 137 311T72 374T48 467V522Q48 574 71 614T137 677T233 700H538Z" />
<glyph unicode="&#xb7;" glyph-name="middot" horiz-adv-x="240" d="M83 172T61 194T38 254Q38 291 60 313T120 336Q157 336 179 314T202 254Q202 217 180 195T120 172Q83 172 61 194Z" />
<glyph unicode="&#xb8;" glyph-name="cedilla" horiz-adv-x="292" d="M32 -168H118Q136 -168 147 -162T158 -145V-130Q158 -121 149 -116T125 -110H59V-58L97 32H197L162 -46H172Q212 -46 236 -69T260 -129V-149Q260 -195 224 -222T129 -250H32V-168Z" />
<glyph unicode="&#xb9;" glyph-name="uni00B9" horiz-adv-x="259" d="M107 590L12 542V639L126 700H215V289H107V590Z" />
<glyph unicode="&#xba;" glyph-name="ordmasculine" horiz-adv-x="453" d="M127 343T86 381T44 483V565Q44 629 85 667T195 706H258Q326 706 367 668T409 565V483Q409 420 367 382T257 343H194Q127 343 86 381ZM251 437Q271 437 283 451T295 488V560Q295 583 283
597T252 612H201Q182 612 170 598T158 560V488Q158 465 169 451T200 437H251Z" />
<glyph unicode="&#xbb;" glyph-name="guillemotright" horiz-adv-x="680" d="M38 142L202 268L38 392V534L376 268L38 2V142ZM324 142L488 268L324 392V534L662 268L324 2V142Z" />
<glyph unicode="&#xbc;" glyph-name="onequarter" horiz-adv-x="821" d="M133 590L38 542V639L152 700H241V289H133V590ZM522 722H654L272 -25H140L522 722ZM628 78H483Q458 78 445 88T431 119V165L624 411H734V170H783V78H736V0H628V78ZM634 162V301H633L524 162H634Z" />
<glyph unicode="&#xbd;" glyph-name="onehalf" horiz-adv-x="848" d="M133 590L38 542V639L152 700H241V289H133V590ZM503 69Q503 106 518 134T560 178L679 249Q704 263 704 284V302Q704 313 696 319T674 326H645Q627 326 617 314T607 281H501Q501 342 536 379T630
416H685Q741 416 775 386T810 307V286Q810 224 755 192L639 125Q623 116 616 107T609 87H808V0H503V69ZM518 722H650L268 -25H136L518 722Z" />
<glyph unicode="&#xbe;" glyph-name="threequarters" horiz-adv-x="909" d="M337 489T351 470T366 425V409Q366 353 329 319T230 284H172Q112 284 75 320T38 416H143Q143 395 154 384T185 372H219Q238 372 249 382T260 410V424Q260 439 248 448T215 458H152V540H222Q235
540 243 549T252 574V588Q252 601 243 609T220 617H182Q165 617 156 606T146 573H41Q41 633 77 669T173 705H231Q288 705 323 674T358 590V574Q358 550 346 531T308 500Q337 489 351 470ZM716 78H571Q546 78 533 88T519 119V165L712 411H822V170H871V78H824V0H716V78ZM722
162V301H721L612 162H722ZM605 722H737L355 -25H223L605 722Z" />
<glyph unicode="&#xbf;" glyph-name="questiondown" horiz-adv-x="591" d="M338 507T360 485T383 425Q383 388 361 366T301 343Q264 343 242 365T219 425Q219 462 241 484T301 507Q338 507 360 485ZM370 271Q370 227 354 197T314 147T255 106Q214 81 195 62T176
13V-23Q176 -54 198 -72T257 -91H343Q383 -91 407 -65T431 6H569Q569 -58 541 -107T462 -184T343 -211H257Q192 -211 143 -188T66 -122T38 -23V13Q38 58 53 88T90 135T148 174Q190 198 211 219T232 279V293H370V271Z" />
<glyph unicode="&#xc0;" glyph-name="Agrave" horiz-adv-x="681" d="M472 163H210L148 0H4L278 700H340Q405 700 428 640L677 0H533L472 163ZM247 279H435L342 531H341L247 279ZM157 949H307L405 769H275L157 949Z" />
<glyph unicode="&#xc1;" glyph-name="Aacute" horiz-adv-x="681" d="M472 163H210L148 0H4L278 700H340Q405 700 428 640L677 0H533L472 163ZM247 279H435L342 531H341L247 279ZM372 949H522L404 769H274L372 949Z" />
<glyph unicode="&#xc2;" glyph-name="Acircumflex" horiz-adv-x="681" d="M472 163H210L148 0H4L278 700H340Q405 700 428 640L677 0H533L472 163ZM247 279H435L342 531H341L247 279ZM296 955H385L536 769H415L341 866L266 769H146L296 955Z" />
<glyph unicode="&#xc3;" glyph-name="Atilde" horiz-adv-x="681" d="M472 163H210L148 0H4L278 700H340Q405 700 428 640L677 0H533L472 163ZM247 279H435L342 531H341L247 279ZM382 761T364 771T325 799Q300 822 286 822H280Q267 822 259 808T251 769H152Q151
836 184 877T273 918H279Q303 918 321 908T363 878Q386 857 397 857H403Q415 857 422 871T430 910H529Q529 843 497 802T411 761H405Q382 761 364 771Z" />
<glyph unicode="&#xc4;" glyph-name="Adieresis" horiz-adv-x="681" d="M472 163H210L148 0H4L278 700H340Q405 700 428 640L677 0H533L472 163ZM247 279H435L342 531H341L247 279ZM185 771T165 790T145 842Q145 874 165 893T217 913Q248 913 268 894T288 842Q288
811 268 791T217 771Q185 771 165 790ZM434 771T414 791T394 842Q394 874 414 893T465 913Q497 913 517 894T537 842Q537 810 517 791T465 771Q434 771 414 791Z" />
<glyph unicode="&#xc5;" glyph-name="Aring" horiz-adv-x="681" d="M472 163H210L148 0H4L278 700H340Q405 700 428 640L677 0H533L472 163ZM247 279H435L342 531H341L247 279ZM286 748T252 781T218 868Q218 922 252 955T341 988Q396 988 430 955T464 868Q464
814 430 781T341 748Q286 748 252 781ZM361 824T373 836T385 868Q385 888 373 900T341 912Q321 912 309 900T297 868Q297 849 309 837T341 824Q361 824 373 836Z" />
<glyph unicode="&#xc6;" glyph-name="AE" horiz-adv-x="961" d="M543 580V418H889V298H543V120H929V0H508Q464 0 438 25T411 94V166H222L131 0H-10L376 700H929V580H543ZM423 284V554L280 284H423Z" />
<glyph unicode="&#xc7;" glyph-name="Ccedilla" horiz-adv-x="688" d="M401 -8L384 -46H394Q434 -46 458 -69T482 -129V-149Q482 -195 446 -222T351 -250H254V-168H340Q358 -168 369 -162T380 -145V-130Q380 -121 371 -116T347 -110H281V-58L302 -8H300Q223 -8
165 25T74 118T42 258V442Q42 521 74 581T166 675T304 708H410Q485 708 542 676T630 587T662 453H526Q526 513 494 549T410 586H304Q248 586 214 545T180 436V264Q180 197 213 156T300 114H408Q461 114 494 155T528 263H664Q664 182 632 121T542 26T408 -8H401Z"
/>
<glyph unicode="&#xc8;" glyph-name="Egrave" horiz-adv-x="628" d="M116 0T89 26T62 94V700H596V580H200V418H566V298H200V120H596V0H159Q116 0 89 26ZM149 949H299L397 769H267L149 949Z" />
<glyph unicode="&#xc9;" glyph-name="Eacute" horiz-adv-x="628" d="M116 0T89 26T62 94V700H596V580H200V418H566V298H200V120H596V0H159Q116 0 89 26ZM364 949H514L396 769H266L364 949Z" />
<glyph unicode="&#xca;" glyph-name="Ecircumflex" horiz-adv-x="628" d="M116 0T89 26T62 94V700H596V580H200V418H566V298H200V120H596V0H159Q116 0 89 26ZM288 955H377L528 769H407L333 866L258 769H138L288 955Z" />
<glyph unicode="&#xcb;" glyph-name="Edieresis" horiz-adv-x="628" d="M116 0T89 26T62 94V700H596V580H200V418H566V298H200V120H596V0H159Q116 0 89 26ZM177 771T157 790T137 842Q137 874 157 893T209 913Q240 913 260 894T280 842Q280 811 260 791T209 771Q177
771 157 790ZM426 771T406 791T386 842Q386 874 406 893T457 913Q489 913 509 894T529 842Q529 810 509 791T457 771Q426 771 406 791Z" />
<glyph unicode="&#xcc;" glyph-name="Igrave" horiz-adv-x="282" d="M72 700H210V0H72V700ZM-43 949H107L205 769H75L-43 949Z" />
<glyph unicode="&#xcd;" glyph-name="Iacute" horiz-adv-x="282" d="M72 700H210V0H72V700ZM172 949H322L204 769H74L172 949Z" />
<glyph unicode="&#xce;" glyph-name="Icircumflex" horiz-adv-x="282" d="M72 700H210V0H72V700ZM96 955H185L336 769H215L141 866L66 769H-54L96 955Z" />
<glyph unicode="&#xcf;" glyph-name="Idieresis" horiz-adv-x="282" d="M72 700H210V0H72V700ZM-15 771T-35 790T-55 842Q-55 874 -35 893T17 913Q48 913 68 894T88 842Q88 811 68 791T17 771Q-15 771 -35 790ZM234 771T214 791T194 842Q194 874 214 893T265 913Q297
913 317 894T337 842Q337 810 317 791T265 771Q234 771 214 791Z" />
<glyph unicode="&#xd0;" glyph-name="Eth" horiz-adv-x="753" d="M527 700T587 670T681 585T715 458V262Q715 133 648 67T451 0H210Q167 0 140 26T113 94V292H22V412H113V700H447Q527 700 587 670ZM577 452Q577 509 540 543T443 578H251V412H467V292H251V122H447Q511
122 544 159T577 268V452Z" />
<glyph unicode="&#xd1;" glyph-name="Ntilde" horiz-adv-x="718" d="M62 700H185L521 224V700H656V0H533L197 476V0H62V700ZM400 761T382 771T343 799Q318 822 304 822H298Q285 822 277 808T269 769H170Q169 836 202 877T291 918H297Q321 918 339 908T381 878Q404
857 415 857H421Q433 857 440 871T448 910H547Q547 843 515 802T429 761H423Q400 761 382 771Z" />
<glyph unicode="&#xd2;" glyph-name="Ograve" horiz-adv-x="724" d="M230 -8T170 25T76 119T42 260V440Q42 520 75 580T169 674T309 708H415Q494 708 554 675T648 581T682 440V260Q682 180 649 120T555 26T415 -8H309Q230 -8 170 25ZM415 114Q473 114 508 156T544
266V434Q544 502 509 544T415 586H309Q251 586 216 544T180 434V266Q180 198 215 156T309 114H415ZM178 949H328L426 769H296L178 949Z" />
<glyph unicode="&#xd3;" glyph-name="Oacute" horiz-adv-x="724" d="M230 -8T170 25T76 119T42 260V440Q42 520 75 580T169 674T309 708H415Q494 708 554 675T648 581T682 440V260Q682 180 649 120T555 26T415 -8H309Q230 -8 170 25ZM415 114Q473 114 508 156T544
266V434Q544 502 509 544T415 586H309Q251 586 216 544T180 434V266Q180 198 215 156T309 114H415ZM393 949H543L425 769H295L393 949Z" />
<glyph unicode="&#xd4;" glyph-name="Ocircumflex" horiz-adv-x="724" d="M230 -8T170 25T76 119T42 260V440Q42 520 75 580T169 674T309 708H415Q494 708 554 675T648 581T682 440V260Q682 180 649 120T555 26T415 -8H309Q230 -8 170 25ZM415 114Q473 114 508
156T544 266V434Q544 502 509 544T415 586H309Q251 586 216 544T180 434V266Q180 198 215 156T309 114H415ZM317 955H406L557 769H436L362 866L287 769H167L317 955Z" />
<glyph unicode="&#xd5;" glyph-name="Otilde" horiz-adv-x="724" d="M230 -8T170 25T76 119T42 260V440Q42 520 75 580T169 674T309 708H415Q494 708 554 675T648 581T682 440V260Q682 180 649 120T555 26T415 -8H309Q230 -8 170 25ZM415 114Q473 114 508 156T544
266V434Q544 502 509 544T415 586H309Q251 586 216 544T180 434V266Q180 198 215 156T309 114H415ZM403 761T385 771T346 799Q321 822 307 822H301Q288 822 280 808T272 769H173Q172 836 205 877T294 918H300Q324 918 342 908T384 878Q407 857 418 857H424Q436
857 443 871T451 910H550Q550 843 518 802T432 761H426Q403 761 385 771Z" />
<glyph unicode="&#xd6;" glyph-name="Odieresis" horiz-adv-x="724" d="M230 -8T170 25T76 119T42 260V440Q42 520 75 580T169 674T309 708H415Q494 708 554 675T648 581T682 440V260Q682 180 649 120T555 26T415 -8H309Q230 -8 170 25ZM415 114Q473 114 508 156T544
266V434Q544 502 509 544T415 586H309Q251 586 216 544T180 434V266Q180 198 215 156T309 114H415ZM206 771T186 790T166 842Q166 874 186 893T238 913Q269 913 289 894T309 842Q309 811 289 791T238 771Q206 771 186 790ZM455 771T435 791T415 842Q415 874 435
893T486 913Q518 913 538 894T558 842Q558 810 538 791T486 771Q455 771 435 791Z" />
<glyph unicode="&#xd7;" glyph-name="multiply" horiz-adv-x="528" d="M39 173L180 314L38 459L122 543L265 398L407 543L490 458L348 313L490 173L407 88L265 231L122 88L39 173Z" />
<glyph unicode="&#xd8;" glyph-name="Oslash" horiz-adv-x="724" d="M609 633Q644 598 663 549T682 440V260Q682 180 649 120T555 26T415 -8H309Q246 -8 195 13L148 -58H37L118 63Q81 99 62 149T42 260V440Q42 520 75 580T169 674T309 708H415Q479 708 533 685L577
751H688L609 633ZM180 218T198 183L461 578Q439 586 415 586H309Q251 586 216 544T180 434V266Q180 218 198 183ZM544 480T528 512L267 121Q285 114 309 114H415Q473 114 508 156T544 266V434Q544 480 528 512Z" />
<glyph unicode="&#xd9;" glyph-name="Ugrave" horiz-adv-x="720" d="M232 -8T176 23T89 112T58 244V700H196V248Q196 188 226 151T306 114H412Q462 114 493 151T524 248V700H662V244Q662 169 631 112T543 24T412 -8H306Q232 -8 176 23ZM176 949H326L424 769H294L176 949Z" />
<glyph unicode="&#xda;" glyph-name="Uacute" horiz-adv-x="720" d="M232 -8T176 23T89 112T58 244V700H196V248Q196 188 226 151T306 114H412Q462 114 493 151T524 248V700H662V244Q662 169 631 112T543 24T412 -8H306Q232 -8 176 23ZM391 949H541L423 769H293L391 949Z" />
<glyph unicode="&#xdb;" glyph-name="Ucircumflex" horiz-adv-x="720" d="M232 -8T176 23T89 112T58 244V700H196V248Q196 188 226 151T306 114H412Q462 114 493 151T524 248V700H662V244Q662 169 631 112T543 24T412 -8H306Q232 -8 176 23ZM315 955H404L555 769H434L360
866L285 769H165L315 955Z" />
<glyph unicode="&#xdc;" glyph-name="Udieresis" horiz-adv-x="720" d="M232 -8T176 23T89 112T58 244V700H196V248Q196 188 226 151T306 114H412Q462 114 493 151T524 248V700H662V244Q662 169 631 112T543 24T412 -8H306Q232 -8 176 23ZM204 771T184 790T164
842Q164 874 184 893T236 913Q267 913 287 894T307 842Q307 811 287 791T236 771Q204 771 184 790ZM453 771T433 791T413 842Q413 874 433 893T484 913Q516 913 536 894T556 842Q556 810 536 791T484 771Q453 771 433 791Z" />
<glyph unicode="&#xdd;" glyph-name="Yacute" horiz-adv-x="652" d="M257 272L-2 700H148L326 399L504 700H654L395 272V0H257V272ZM357 949H507L389 769H259L357 949Z" />
<glyph unicode="&#xde;" glyph-name="Thorn" horiz-adv-x="666" d="M492 592T539 569T612 502T638 402V309Q638 251 611 207T536 138T423 113H200V0H62V700H200V592H431Q492 592 539 569ZM500 396Q500 431 481 451T429 472H200V233H421Q456 233 478 255T500 315V396Z" />
<glyph unicode="&#xdf;" glyph-name="germandbls" horiz-adv-x="707" d="M372 -8T324 36T275 162H399Q399 135 414 122T456 108H501Q525 108 540 121T555 156V175Q555 200 536 217T477 259Q430 288 406 311T382 372V393Q382 433 412 462T496 503Q496 541 472 564T406
588H333Q283 588 253 559T222 482V0H86V356H0V472H86V482Q86 548 117 598T204 676T333 704H406Q472 704 523 679T602 608T630 501V423H602Q558 423 537 415T516 388V376Q516 366 528 357T567 331Q603 310 627 291T670 243T689 175V156Q689 80 639 36T501 -8H456Q372
-8 324 36Z" />
<glyph unicode="&#xe0;" glyph-name="agrave" d="M138 -8T90 31T42 134V171Q42 234 92 272T224 311H285Q311 311 341 304T396 285V337Q396 362 380 377T336 393H250Q222 393 205 380T188 345H56Q56 418 109 462T250 507H336Q424 507 478 461T532 337V0H406V60Q382
29 347 11T278 -8H216Q138 -8 90 31ZM288 96Q325 96 354 115T396 166V183Q380 195 352 202T291 209H228Q204 209 189 197T174 165V139Q174 120 190 108T234 96H288ZM114 748H264L362 568H232L114 748Z" />
<glyph unicode="&#xe1;" glyph-name="aacute" d="M138 -8T90 31T42 134V171Q42 234 92 272T224 311H285Q311 311 341 304T396 285V337Q396 362 380 377T336 393H250Q222 393 205 380T188 345H56Q56 418 109 462T250 507H336Q424 507 478 461T532 337V0H406V60Q382
29 347 11T278 -8H216Q138 -8 90 31ZM288 96Q325 96 354 115T396 166V183Q380 195 352 202T291 209H228Q204 209 189 197T174 165V139Q174 120 190 108T234 96H288ZM329 748H479L361 568H231L329 748Z" />
<glyph unicode="&#xe2;" glyph-name="acircumflex" d="M138 -8T90 31T42 134V171Q42 234 92 272T224 311H285Q311 311 341 304T396 285V337Q396 362 380 377T336 393H250Q222 393 205 380T188 345H56Q56 418 109 462T250 507H336Q424 507 478 461T532 337V0H406V60Q382
29 347 11T278 -8H216Q138 -8 90 31ZM288 96Q325 96 354 115T396 166V183Q380 195 352 202T291 209H228Q204 209 189 197T174 165V139Q174 120 190 108T234 96H288ZM253 754H342L493 568H372L298 665L223 568H103L253 754Z" />
<glyph unicode="&#xe3;" glyph-name="atilde" d="M138 -8T90 31T42 134V171Q42 234 92 272T224 311H285Q311 311 341 304T396 285V337Q396 362 380 377T336 393H250Q222 393 205 380T188 345H56Q56 418 109 462T250 507H336Q424 507 478 461T532 337V0H406V60Q382
29 347 11T278 -8H216Q138 -8 90 31ZM288 96Q325 96 354 115T396 166V183Q380 195 352 202T291 209H228Q204 209 189 197T174 165V139Q174 120 190 108T234 96H288ZM339 560T321 570T282 598Q257 621 243 621H237Q224 621 216 607T208 568H109Q108 635 141 676T230
717H236Q260 717 278 707T320 677Q343 656 354 656H360Q372 656 379 670T387 709H486Q486 642 454 601T368 560H362Q339 560 321 570Z" />
<glyph unicode="&#xe4;" glyph-name="adieresis" d="M138 -8T90 31T42 134V171Q42 234 92 272T224 311H285Q311 311 341 304T396 285V337Q396 362 380 377T336 393H250Q222 393 205 380T188 345H56Q56 418 109 462T250 507H336Q424 507 478 461T532 337V0H406V60Q382
29 347 11T278 -8H216Q138 -8 90 31ZM288 96Q325 96 354 115T396 166V183Q380 195 352 202T291 209H228Q204 209 189 197T174 165V139Q174 120 190 108T234 96H288ZM142 570T122 589T102 641Q102 673 122 692T174 712Q205 712 225 693T245 641Q245 610 225 590T174
570Q142 570 122 589ZM391 570T371 590T351 641Q351 673 371 692T422 712Q454 712 474 693T494 641Q494 609 474 590T422 570Q391 570 371 590Z" />
<glyph unicode="&#xe5;" glyph-name="aring" d="M138 -8T90 31T42 134V171Q42 234 92 272T224 311H285Q311 311 341 304T396 285V337Q396 362 380 377T336 393H250Q222 393 205 380T188 345H56Q56 418 109 462T250 507H336Q424 507 478 461T532 337V0H406V60Q382
29 347 11T278 -8H216Q138 -8 90 31ZM288 96Q325 96 354 115T396 166V183Q380 195 352 202T291 209H228Q204 209 189 197T174 165V139Q174 120 190 108T234 96H288ZM243 547T209 580T175 667Q175 721 209 754T298 787Q353 787 387 754T421 667Q421 613 387 580T298
547Q243 547 209 580ZM318 623T330 635T342 667Q342 687 330 699T298 711Q278 711 266 699T254 667Q254 648 266 636T298 623Q318 623 330 635Z" />
<glyph unicode="&#xe6;" glyph-name="ae" horiz-adv-x="930" d="M141 -8T92 31T42 133V171Q42 234 92 272T224 311H285Q310 311 340 304T396 285V337Q396 362 380 377T336 393H250Q222 393 205 380T188 345H56Q56 418 109 462T250 507H336Q376 507 412 492T470
451H471Q492 477 530 492T611 507H683Q746 507 794 482T869 411T896 305V203H532V189Q532 151 554 129T613 106H681Q716 106 738 121T760 162H894Q894 112 867 73T792 13T679 -8H613Q566 -8 525 11T461 62H460Q434 30 393 11T312 -8H220Q141 -8 92 31ZM761 301V307Q761
346 740 369T683 393H611Q576 393 554 368T532 303V301H761ZM288 96Q325 96 354 115T396 166V183Q380 195 352 202T291 209H230Q204 209 189 198T174 165V139Q174 120 190 108T234 96H288Z" />
<glyph unicode="&#xe7;" glyph-name="ccedilla" horiz-adv-x="560" d="M536 103T481 48T333 -8L316 -46H326Q366 -46 390 -69T414 -129V-149Q414 -195 378 -222T283 -250H186V-168H272Q290 -168 301 -162T312 -145V-130Q312 -121 303 -116T279 -110H213V-58L234
-8Q145 -3 92 51T38 191V308Q38 367 64 412T139 482T250 507H329Q389 507 435 483T506 416T531 315H396Q396 349 378 369T329 390H252Q217 390 196 365T174 298V201Q174 160 196 135T253 109H330Q362 109 381 132T401 193H536Q536 103 481 48Z" />
<glyph unicode="&#xe8;" glyph-name="egrave" horiz-adv-x="578" d="M189 -8T141 15T65 81T38 179V308Q38 367 65 412T140 482T252 507H332Q428 507 486 453T544 309V203H174V179Q174 146 195 126T252 106H330Q365 106 386 121T408 162H542Q542 112 515 73T440
13T328 -8H252Q189 -8 141 15ZM410 301V309Q410 348 389 371T333 395H252Q216 395 194 370T172 304V301H410ZM106 748H256L354 568H224L106 748Z" />
<glyph unicode="&#xe9;" glyph-name="eacute" horiz-adv-x="578" d="M189 -8T141 15T65 81T38 179V308Q38 367 65 412T140 482T252 507H332Q428 507 486 453T544 309V203H174V179Q174 146 195 126T252 106H330Q365 106 386 121T408 162H542Q542 112 515 73T440
13T328 -8H252Q189 -8 141 15ZM410 301V309Q410 348 389 371T333 395H252Q216 395 194 370T172 304V301H410ZM321 748H471L353 568H223L321 748Z" />
<glyph unicode="&#xea;" glyph-name="ecircumflex" horiz-adv-x="578" d="M189 -8T141 15T65 81T38 179V308Q38 367 65 412T140 482T252 507H332Q428 507 486 453T544 309V203H174V179Q174 146 195 126T252 106H330Q365 106 386 121T408 162H542Q542 112 515 73T440
13T328 -8H252Q189 -8 141 15ZM410 301V309Q410 348 389 371T333 395H252Q216 395 194 370T172 304V301H410ZM245 754H334L485 568H364L290 665L215 568H95L245 754Z" />
<glyph unicode="&#xeb;" glyph-name="edieresis" horiz-adv-x="578" d="M189 -8T141 15T65 81T38 179V308Q38 367 65 412T140 482T252 507H332Q428 507 486 453T544 309V203H174V179Q174 146 195 126T252 106H330Q365 106 386 121T408 162H542Q542 112 515 73T440
13T328 -8H252Q189 -8 141 15ZM410 301V309Q410 348 389 371T333 395H252Q216 395 194 370T172 304V301H410ZM134 570T114 589T94 641Q94 673 114 692T166 712Q197 712 217 693T237 641Q237 610 217 590T166 570Q134 570 114 589ZM383 570T363 590T343 641Q343
673 363 692T414 712Q446 712 466 693T486 641Q486 609 466 590T414 570Q383 570 363 590Z" />
<glyph unicode="&#xec;" glyph-name="igrave" horiz-adv-x="264" d="M64 499H200V0H64V499ZM-52 748H98L196 568H66L-52 748Z" />
<glyph unicode="&#xed;" glyph-name="iacute" horiz-adv-x="264" d="M64 499H200V0H64V499ZM163 748H313L195 568H65L163 748Z" />
<glyph unicode="&#xee;" glyph-name="icircumflex" horiz-adv-x="264" d="M64 499H200V0H64V499ZM87 754H176L327 568H206L132 665L57 568H-63L87 754Z" />
<glyph unicode="&#xef;" glyph-name="idieresis" horiz-adv-x="264" d="M64 499H200V0H64V499ZM-24 570T-44 589T-64 641Q-64 673 -44 692T8 712Q39 712 59 693T79 641Q79 610 59 590T8 570Q-24 570 -44 589ZM225 570T205 590T185 641Q185 673 205 692T256 712Q288
712 308 693T328 641Q328 609 308 590T256 570Q225 570 205 590Z" />
<glyph unicode="&#xf0;" glyph-name="eth" horiz-adv-x="615" d="M513 650T548 568T583 377V225Q583 156 553 103T467 21T339 -8H267Q197 -8 144 17T62 89T32 197V301Q32 364 61 412T142 488T264 515H327Q360 515 390 504T439 473H440Q437 512 420 545T371 604L337
560H203L273 649Q242 656 204 656H150V770H204Q287 770 350 748L391 801H525L446 700Q513 650 548 568ZM447 277Q447 332 416 365T332 398H266Q222 398 195 369T168 291V207Q168 163 195 136T269 109H337Q387 109 417 141T447 225V277Z" />
<glyph unicode="&#xf1;" glyph-name="ntilde" horiz-adv-x="600" d="M58 499H184V439Q206 470 241 488T311 507H371Q451 507 499 457T548 325V0H412V320Q412 351 396 370T353 389H293Q258 389 231 364T194 297V0H58V499ZM348 560T330 570T291 598Q266 621 252
621H246Q233 621 225 607T217 568H118Q117 635 150 676T239 717H245Q269 717 287 707T329 677Q352 656 363 656H369Q381 656 388 670T396 709H495Q495 642 463 601T377 560H371Q348 560 330 570Z" />
<glyph unicode="&#xf2;" glyph-name="ograve" horiz-adv-x="594" d="M188 -8T140 16T65 86T38 190V307Q38 366 65 411T140 482T252 507H342Q405 507 453 482T529 412T556 307V190Q556 131 529 86T454 17T341 -8H251Q188 -8 140 16ZM339 109Q376 109 398 134T420
201V298Q420 339 398 364T340 390H254Q218 390 196 365T174 298V201Q174 160 196 135T253 109H339ZM113 748H263L361 568H231L113 748Z" />
<glyph unicode="&#xf3;" glyph-name="oacute" horiz-adv-x="594" d="M188 -8T140 16T65 86T38 190V307Q38 366 65 411T140 482T252 507H342Q405 507 453 482T529 412T556 307V190Q556 131 529 86T454 17T341 -8H251Q188 -8 140 16ZM339 109Q376 109 398 134T420
201V298Q420 339 398 364T340 390H254Q218 390 196 365T174 298V201Q174 160 196 135T253 109H339ZM328 748H478L360 568H230L328 748Z" />
<glyph unicode="&#xf4;" glyph-name="ocircumflex" horiz-adv-x="594" d="M188 -8T140 16T65 86T38 190V307Q38 366 65 411T140 482T252 507H342Q405 507 453 482T529 412T556 307V190Q556 131 529 86T454 17T341 -8H251Q188 -8 140 16ZM339 109Q376 109 398 134T420
201V298Q420 339 398 364T340 390H254Q218 390 196 365T174 298V201Q174 160 196 135T253 109H339ZM252 754H341L492 568H371L297 665L222 568H102L252 754Z" />
<glyph unicode="&#xf5;" glyph-name="otilde" horiz-adv-x="594" d="M188 -8T140 16T65 86T38 190V307Q38 366 65 411T140 482T252 507H342Q405 507 453 482T529 412T556 307V190Q556 131 529 86T454 17T341 -8H251Q188 -8 140 16ZM339 109Q376 109 398 134T420
201V298Q420 339 398 364T340 390H254Q218 390 196 365T174 298V201Q174 160 196 135T253 109H339ZM338 560T320 570T281 598Q256 621 242 621H236Q223 621 215 607T207 568H108Q107 635 140 676T229 717H235Q259 717 277 707T319 677Q342 656 353 656H359Q371
656 378 670T386 709H485Q485 642 453 601T367 560H361Q338 560 320 570Z" />
<glyph unicode="&#xf6;" glyph-name="odieresis" horiz-adv-x="594" d="M188 -8T140 16T65 86T38 190V307Q38 366 65 411T140 482T252 507H342Q405 507 453 482T529 412T556 307V190Q556 131 529 86T454 17T341 -8H251Q188 -8 140 16ZM339 109Q376 109 398 134T420
201V298Q420 339 398 364T340 390H254Q218 390 196 365T174 298V201Q174 160 196 135T253 109H339ZM141 570T121 589T101 641Q101 673 121 692T173 712Q204 712 224 693T244 641Q244 610 224 590T173 570Q141 570 121 589ZM390 570T370 590T350 641Q350 673 370
692T421 712Q453 712 473 693T493 641Q493 609 473 590T421 570Q390 570 370 590Z" />
<glyph unicode="&#xf7;" glyph-name="divide" horiz-adv-x="576" d="M254 426T233 447T212 502Q212 537 233 557T288 578Q323 578 343 558T364 502Q364 468 344 447T288 426Q254 426 233 447ZM38 383H538V265H38V383ZM254 70T233 91T212 146Q212 181 233 201T288
222Q323 222 343 202T364 146Q364 112 344 91T288 70Q254 70 233 91Z" />
<glyph unicode="&#xf8;" glyph-name="oslash" horiz-adv-x="594" d="M523 428T539 391T556 307V190Q556 131 529 86T454 17T341 -8H251Q208 -8 177 2L144 -45H38L100 43Q70 69 54 106T38 190V307Q38 366 65 411T140 482T252 507H342Q385 507 416 497L450 545H556L493
455Q523 428 539 391ZM174 177T181 160L342 390H340H254Q218 390 196 365T174 298V201Q174 177 181 160ZM420 298Q420 319 413 340L252 109H253H339Q376 109 398 134T420 201V298Z" />
<glyph unicode="&#xf9;" glyph-name="ugrave" horiz-adv-x="598" d="M148 -8T100 45T52 186V499H188V184Q188 151 204 131T248 110H306Q339 110 366 137T404 210V499H540V0H414V64Q391 32 358 12T293 -8H227Q148 -8 100 45ZM115 748H265L363 568H233L115 748Z" />
<glyph unicode="&#xfa;" glyph-name="uacute" horiz-adv-x="598" d="M148 -8T100 45T52 186V499H188V184Q188 151 204 131T248 110H306Q339 110 366 137T404 210V499H540V0H414V64Q391 32 358 12T293 -8H227Q148 -8 100 45ZM330 748H480L362 568H232L330 748Z" />
<glyph unicode="&#xfb;" glyph-name="ucircumflex" horiz-adv-x="598" d="M148 -8T100 45T52 186V499H188V184Q188 151 204 131T248 110H306Q339 110 366 137T404 210V499H540V0H414V64Q391 32 358 12T293 -8H227Q148 -8 100 45ZM254 754H343L494 568H373L299
665L224 568H104L254 754Z" />
<glyph unicode="&#xfc;" glyph-name="udieresis" horiz-adv-x="598" d="M148 -8T100 45T52 186V499H188V184Q188 151 204 131T248 110H306Q339 110 366 137T404 210V499H540V0H414V64Q391 32 358 12T293 -8H227Q148 -8 100 45ZM143 570T123 589T103 641Q103 673
123 692T175 712Q206 712 226 693T246 641Q246 610 226 590T175 570Q143 570 123 589ZM392 570T372 590T352 641Q352 673 372 692T423 712Q455 712 475 693T495 641Q495 609 475 590T423 570Q392 570 372 590Z" />
<glyph unicode="&#xfd;" glyph-name="yacute" horiz-adv-x="598" d="M171 -203T119 -158T60 -38H194Q196 -60 212 -73T252 -87H334Q365 -87 384 -62T404 5V70Q381 39 352 22T293 4H227Q148 4 100 56T52 196V499H188V194Q188 161 204 141T248 120H306Q339 120 366
147T404 220V499H540V5Q540 -57 515 -104T442 -177T334 -203H252Q171 -203 119 -158ZM330 748H480L362 568H232L330 748Z" />
<glyph unicode="&#xfe;" glyph-name="thorn" horiz-adv-x="604" d="M58 700H194V455Q214 478 243 492T301 507H364Q424 507 470 483T541 414T566 313V201Q566 139 541 92T471 18T367 -8H302Q274 -8 245 5T194 40V-200H58V700ZM349 109Q386 109 408 137T430 211V303Q430
342 408 366T348 390H287Q257 390 232 367T194 306V207Q199 163 224 136T287 109H349Z" />
<glyph unicode="&#xff;" glyph-name="ydieresis" horiz-adv-x="598" d="M171 -203T119 -158T60 -38H194Q196 -60 212 -73T252 -87H334Q365 -87 384 -62T404 5V70Q381 39 352 22T293 4H227Q148 4 100 56T52 196V499H188V194Q188 161 204 141T248 120H306Q339 120
366 147T404 220V499H540V5Q540 -57 515 -104T442 -177T334 -203H252Q171 -203 119 -158ZM143 570T123 589T103 641Q103 673 123 692T175 712Q206 712 226 693T246 641Q246 610 226 590T175 570Q143 570 123 589ZM392 570T372 590T352 641Q352 673 372 692T423
712Q455 712 475 693T495 641Q495 609 475 590T423 570Q392 570 372 590Z" />
<glyph unicode="&#x2013;" glyph-name="endash" horiz-adv-x="670" d="M38 316H632V198H38V316Z" />
<glyph unicode="&#x2014;" glyph-name="emdash" horiz-adv-x="775" d="M38 316H737V198H38V316Z" />
<glyph unicode="&#x2018;" glyph-name="quoteleft" horiz-adv-x="272" d="M246 610L216 583Q164 536 164 469V403H28V469Q28 536 52 590T124 681L158 708L246 610Z" />
<glyph unicode="&#x2019;" glyph-name="quoteright" horiz-adv-x="272" d="M26 493L56 520Q108 567 108 634V700H244V634Q244 567 220 513T148 422L114 395L26 493Z" />
<glyph unicode="&#x201a;" glyph-name="quotesinglbase" horiz-adv-x="252" d="M-6 158L24 185Q76 232 76 299V365H212V299Q212 232 188 178T116 87L82 60L-6 158Z" />
<glyph unicode="&#x201c;" glyph-name="quotedblleft" horiz-adv-x="490" d="M246 610L216 583Q164 536 164 469V403H28V469Q28 536 52 590T124 681L158 708L246 610ZM464 610L434 583Q382 536 382 469V403H246V469Q246 536 270 590T342 681L376 708L464 610Z" />
<glyph unicode="&#x201d;" glyph-name="quotedblright" horiz-adv-x="490" d="M26 493L56 520Q108 567 108 634V700H244V634Q244 567 220 513T148 422L114 395L26 493ZM244 493L274 520Q326 567 326 634V700H462V634Q462 567 438 513T366 422L332 395L244 493Z" />
<glyph unicode="&#x201e;" glyph-name="quotedblbase" horiz-adv-x="480" d="M-6 158L24 185Q76 232 76 299V365H212V299Q212 232 188 178T116 87L82 60L-6 158ZM222 -98L252 -71Q304 -24 304 43V109H440V43Q440 -24 416 -78T344 -169L310 -196L222 -98Z" />
<glyph unicode="&#x2022;" glyph-name="bullet" horiz-adv-x="344" d="M112 145T75 182T38 279Q38 339 75 376T172 413Q232 413 269 376T306 279Q306 219 269 182T172 145Q112 145 75 182Z" />
<glyph unicode="&#x2039;" glyph-name="guilsinglleft" horiz-adv-x="394" d="M18 268L356 534V392L192 268L356 142V2L18 268Z" />
<glyph unicode="&#x203a;" glyph-name="guilsinglright" horiz-adv-x="394" d="M38 142L202 268L38 392V534L376 268L38 2V142Z" />
</font>
</defs>
</svg>
